# xmcd
# Copyright (C) 1995-1998 Ti Kan
#
# Track frame offsets:
#       150
#       14442
#       24571
#       36544
#
# Disc length: 677 seconds
#
# Revision: 0
# Processed by: cddbd v1.5.2PL0 Copyright (c) Steve Scherf et al.
# Submitted via: CD-Transfer v1.0
#
DISCID=2d02a304
DTITLE=Zillertaler Mander - 
DYEAR=07
DGENRE=
TTITLE0=Da Bleibt Koaner Mehr Sitzen
TTITLE1=Boarisch Werd Heut Tanz`d 
TTITLE2=Komm Doch Einfach Mal Mit Ins Zillertal
TTITLE3=Da Bleibt Koaner Mehr Sitzen (Live)
EXTD=
EXTT0=
EXTT1=
EXTT2=
EXTT3=
PLAYORDER=
